<svg width="334" height="100" viewBox="0 0 334 100" fill="none" xmlns="http://www.w3.org/2000/svg">
<path d="M4 0H0V100H4V0Z" fill="black"/>
<path d="M8 0H6V100H8V0Z" fill="black"/>
<path d="M14 0H12V100H14V0Z" fill="black"/>
<path d="M26 0H22V100H26V0Z" fill="black"/>
<path d="M32 0H30V100H32V0Z" fill="black"/>
<path d="M40 0H34V100H40V0Z" fill="black"/>
<path d="M46 0H44V100H46V0Z" fill="black"/>
<path d="M56 0H50V100H56V0Z" fill="black"/>
<path d="M64 0H60V100H64V0Z" fill="black"/>
<path d="M70 0H66V100H70V0Z" fill="black"/>
<path d="M80 0H74V100H80V0Z" fill="black"/>
<path d="M84 0H82V100H84V0Z" fill="black"/>
<path d="M90 0H88V100H90V0Z" fill="black"/>
<path d="M98 0H94V100H98V0Z" fill="black"/>
<path d="M106 0H100V100H106V0Z" fill="black"/>
<path d="M112 0H110V100H112V0Z" fill="black"/>
<path d="M120 0H114V100H120V0Z" fill="black"/>
<path d="M130 0H122V100H130V0Z" fill="black"/>
<path d="M136 0H132V100H136V0Z" fill="black"/>
<path d="M144 0H142V100H144V0Z" fill="black"/>
<path d="M150 0H148V100H150V0Z" fill="black"/>
<path d="M156 0H154V100H156V0Z" fill="black"/>
<path d="M160 0H158V100H160V0Z" fill="black"/>
<path d="M174 0H166V100H174V0Z" fill="black"/>
<path d="M178 0H176V100H178V0Z" fill="black"/>
<path d="M188 0H180V100H188V0Z" fill="black"/>
<path d="M196 0H190V100H196V0Z" fill="black"/>
<path d="M200 0H198V100H200V0Z" fill="black"/>
<path d="M208 0H204V100H208V0Z" fill="black"/>
<path d="M216 0H210V100H216V0Z" fill="black"/>
<path d="M226 0H220V100H226V0Z" fill="black"/>
<path d="M232 0H230V100H232V0Z" fill="black"/>
<path d="M238 0H234V100H238V0Z" fill="black"/>
<path d="M246 0H242V100H246V0Z" fill="black"/>
<path d="M256 0H250V100H256V0Z" fill="black"/>
<path d="M262 0H260V100H262V0Z" fill="black"/>
<path d="M268 0H264V100H268V0Z" fill="black"/>
<path d="M274 0H272V100H274V0Z" fill="black"/>
<path d="M284 0H278V100H284V0Z" fill="black"/>
<path d="M290 0H286V100H290V0Z" fill="black"/>
<path d="M298 0H294V100H298V0Z" fill="black"/>
<path d="M306 0H302V100H306V0Z" fill="black"/>
<path d="M312 0H308V100H312V0Z" fill="black"/>
<path d="M324 0H318V100H324V0Z" fill="black"/>
<path d="M328 0H326V100H328V0Z" fill="black"/>
<path d="M334 0H330V100H334V0Z" fill="black"/>
</svg>
