<svg width="100" height="100" viewBox="0 0 100 100" fill="none" xmlns="http://www.w3.org/2000/svg">
<rect y="15" width="100" height="60" rx="3" fill="white"/>
<path d="M0 18C0 16.3431 1.34315 15 3 15H97C98.6569 15 100 16.3431 100 18V30H0V18Z" fill="#2476BA"/>
<rect x="5" y="35" width="35" height="35" rx="2" fill="#497AC7"/>
<path d="M29.8817 48.9548C29.8817 53.3481 26.3212 56.9096 21.929 56.9096C17.5368 56.9096 13.9763 53.3481 13.9763 48.9548C13.9763 44.5615 17.5368 41 21.929 41C26.3212 41 29.8817 44.5615 29.8817 48.9548Z" fill="white" fill-opacity="0.5"/>
<path d="M10 70C9.99814 66.8447 11.2606 63.818 13.5098 61.5856C15.7589 59.3532 18.8104 58.098 21.993 58.0961C25.1756 58.0943 28.2286 59.346 30.4803 61.5758C32.7321 63.8056 33.9981 66.8308 34 69.9861L10 70Z" fill="white" fill-opacity="0.5"/>
<line x1="47" y1="38" x2="88" y2="38" stroke="black" stroke-width="4"/>
<line x1="29" y1="23" x2="70" y2="23" stroke="white" stroke-width="4"/>
<line x1="47" y1="48" x2="69" y2="48" stroke="black" stroke-width="4"/>
<line x1="47" y1="65" x2="76" y2="65" stroke="black" stroke-width="4"/>
</svg>
