<?xml version="1.0" encoding="utf-8"?>
<!-- Svg Vector Icons : http://www.onlinewebfonts.com/icon -->
<!DOCTYPE svg PUBLIC "-//W3C//DTD SVG 1.1//EN" "http://www.w3.org/Graphics/SVG/1.1/DTD/svg11.dtd">
<svg version="1.1" xmlns="http://www.w3.org/2000/svg" xmlns:xlink="http://www.w3.org/1999/xlink" x="0px" y="0px" viewBox="0 0 1000 1000" enable-background="new 0 0 1000 1000" xml:space="preserve">
<metadata> Svg Vector Icons : http://www.onlinewebfonts.com/icon </metadata>
<g><g transform="translate(0.000000,511.000000) scale(0.100000,-0.100000)"><path d="M3929.2,2891.6c-9.6-1.9-94.2-11.5-186.5-17.3c-163.5-13.5-169.2-13.5-157.7-57.7c9.6-42.3,5.8-44.2-150-51.9c-125-7.7-184.6-21.1-275-63.5c-63.5-30.8-103.8-57.7-90.4-63.5c42.3-13.5,23.1-38.5-48.1-63.5c-40.4-13.5-80.8-25-92.3-25c-9.6-1.9-19.2-9.6-19.2-21.2c0-9.6,36.5-19.2,82.7-17.3c53.8,0,80.8-7.7,80.8-23.1c0-15.4-30.8-26.9-80.8-30.8l-82.7-5.8l53.8-36.5c38.5-25,59.6-28.8,76.9-15.4c15.4,13.5,34.6,13.5,51.9,3.8c15.4-11.5,51.9-19.2,78.8-19.2c42.3,0,53.8-11.5,65.4-61.5c7.7-34.6,13.5-82.7,9.6-107.7c-1.9-38.5,3.8-42.3,46.2-30.8c63.5,15.4,67.3-25,7.7-50c-25-9.6-34.6-17.3-23.1-17.3c9.6-1.9,36.5-13.5,55.8-28.8c36.5-26.9,36.5-28.8-17.3-78.9c-36.5-34.6-50-59.6-40.4-82.7c7.7-17.3,25-88.5,36.5-157.7c19.2-119.2,23.1-125,78.8-130.8c32.7-3.9,69.2-15.4,80.8-26.9c25-19.2,32.7-5.8,128.8,225c19.2,44.2,38.5,57.7,84.6,61.5c32.7,1.9,96.2,26.9,142.3,55.8c221.2,136.5,240.4,153.8,165.4,165.4c-23.1,3.8-46.2,17.3-50,32.7c-7.7,21.2,1.9,23.1,36.5,13.5c25-7.7,67.3-19.2,94.2-25c42.3-11.5,46.2-7.7,21.2,19.2c-23.1,28.8-21.2,32.7,7.7,32.7c17.3,0,28.8,9.6,25,23.1c-3.8,11.5,7.7,38.5,26.9,57.7c26.9,26.9,32.7,51.9,23.1,111.5c-11.5,73.1-9.6,76.9,38.5,76.9c59.6,0,67.3,30.8,9.6,48.1c-36.5,13.5-38.5,15.4-5.8,50c17.3,21.2,26.9,42.3,21.2,50c-21.2,19.2,82.7,78.8,121.2,69.2c61.5-17.3,59.6,28.8-3.8,61.5c-44.2,21.2-86.5,26.9-138.5,17.3c-82.7-13.5-82.7,19.2,0,50c53.8,21.2,61.5,55.8,13.5,59.6c-53.8,3.8-163.5,15.4-226.9,23.1C3975.4,2893.6,3940.7,2895.5,3929.2,2891.6z M4138.8,2780.1c-15.4-40.4-46.2-46.2-132.7-21.2c-88.5,25-63.5,44.2,61.5,46.2C4131.1,2807,4146.5,2801.3,4138.8,2780.1z M4073.4,2228.2c-13.5-21.2-26.9-34.6-32.7-28.8c-15.4,15.4,9.6,69.2,32.7,69.2C4086.9,2268.6,4086.9,2257,4073.4,2228.2z"/><path d="M2585,2805.1c-121.2-19.2-144.2-42.3-98.1-94.2c48.1-51.9,23.1-71.2-26.9-21.2c-51.9,51.9-82.7,51.9-113.5,0c-19.2-28.8-21.2-46.2-5.8-61.5c11.5-11.5,21.2-36.5,21.2-55.8c0-46.2,61.5-44.2,92.3,3.9c13.5,21.2,40.4,38.5,61.5,38.5c50,0,50-30.8-1.9-44.2c-30.8-7.7-36.5-21.2-26.9-50c9.6-32.7,3.8-40.4-30.8-36.5c-28.8,3.8-46.2-5.8-51.9-25c-3.8-23.1,5.8-28.8,38.5-23.1c25,3.8,61.5-5.8,82.7-23.1c36.5-28.8,30.8-30.8-76.9-19.2c-103.8,9.6-111.5,7.7-78.8-17.3c19.2-15.4,82.7-34.6,142.3-42.3c86.5-9.6,109.6-7.7,128.9,19.2c13.5,17.3,32.7,30.8,46.2,30.8c34.6,0,25,34.6-11.5,44.2c-25,5.8-23.1,9.6,9.6,11.5c44.2,1.9,117.3,69.2,119.2,107.7c0,19.2,71.2,61.5,186.5,109.6c46.2,17.3,59.6,32.7,51.9,57.7c-7.7,26.9,1.9,34.6,44.2,34.6c59.6,0,117.3,28.8,98.1,50C3165.7,2818.6,2690.7,2824.3,2585,2805.1z"/><path d="M5206.1,2703.2c13.5-15.4,67.3-38.5,119.2-50c78.8-19.2,107.7-19.2,144.2,0c25,15.4,46.1,32.7,46.1,38.5c0,21.2-105.8,38.5-225,38.5C5200.4,2730.1,5186.9,2726.3,5206.1,2703.2z"/><path d="M4942.7,2687.8c-30.8-30.8-28.8-67.3,5.8-80.8c15.4-5.8,28.8-28.8,28.8-50c0-46.2,7.7-48.1,67.3-7.7c55.8,36.5,67.3,3.8,17.3-51.9c-34.6-40.4-21.2-75,30.8-75c19.2,0,38.5-9.6,42.3-23.1c11.5-30.8,53.8,0,53.8,38.5c0,17.3,7.7,44.2,17.3,59.6c15.4,23.1,23.1,23.1,50-3.8c28.8-30.8,105.8-46.2,105.8-21.2c0,38.5-53.8,94.2-125,125c-46.1,21.2-86.5,53.8-92.3,75c-13.5,51.9-71.2,50-71.2-3.8c0-36.5-3.8-38.5-32.7-11.5C4985,2705.1,4965.7,2710.9,4942.7,2687.8z"/><path d="M6171.5,2693.6c-42.3-26.9-7.7-63.5,38.5-40.4c21.2,11.5,32.7,28.8,26.9,40.4C6221.5,2714.7,6206.1,2714.7,6171.5,2693.6z"/><path d="M6990.7,2659c-7.7-5.8-13.5-23.1-13.5-38.5c0-17.3,30.8-25,105.8-25c107.7,0,134.6,21.2,69.2,57.7C7110,2674.3,7010,2680.1,6990.7,2659z"/><path d="M7285,2484c0-40.4-80.8-92.3-113.5-73.1c-38.5,25-246.2-53.8-286.5-107.7c-13.5-17.3-36.6-28.8-51.9-23.1c-40.4,15.4-36.5-30.8,5.8-61.5c30.8-23.1,30.8-25,0-26.9c-17.3,0-38.5,9.6-44.2,19.2c-21.2,34.6-67.3,21.2-67.3-19.2c0-21.2-7.7-38.5-19.2-38.5c-9.6,0-19.2,19.2-19.2,40.4c0,34.6-3.8,36.5-28.8,17.3c-25-19.2-36.5-19.2-67.3,9.6c-36.6,32.7-40.4,32.7-111.5-50c-75-82.7-75-82.7-150-59.6c-84.6,25-107.7,15.4-53.9-25c32.7-25,26.9-26.9-71.1-28.8c-82.7,0-121.2-11.5-171.2-48.1c-65.4-48.1-96.2-48.1-96.2,1.9c0,15.4-13.5,26.9-28.8,26.9s-28.8-17.3-28.8-36.5c0-36.5-90.4-117.3-132.7-117.3c-11.5,0-21.2-13.5-21.2-28.8s-11.5-28.8-25-28.8c-36.5,0-71.2,40.4-71.2,80.8c0,28.8,15.4,34.6,86.5,34.6c48.1,0,86.5,7.7,86.5,17.3c0,25-55.8,78.8-78.8,78.8c-34.6,0-184.6,75-209.6,105.8c-30.8,38.5-161.5,38.5-192.3,0c-13.5-15.4-34.6-28.8-48.1-28.8c-36.5,0-201.9-136.5-201.9-167.3c0-15.4-48.1-75-107.7-134.6c-96.2-92.3-107.7-111.5-96.2-163.5c5.8-32.7,11.5-75,11.5-94.2c0-23.1,19.2-40.4,48.1-48.1c50-11.5,59.6-28.8,34.6-53.8c-9.6-7.7-15.4-32.7-15.4-55.8c0-28.8-17.3-44.2-61.5-55.8c-34.6-9.6-63.5-26.9-63.5-40.4c0-42.3-113.5-134.6-225-184.6c-53.8-25-57.7-59.6-9.6-59.6c48.1,0,105.8-65.4,96.2-109.6c-5.8-26.9-26.9-36.5-117.3-40.4l-109.6-5.8l-3.8-71.2c-1.9-80.8,3.8-163.5,13.5-173.1c3.8-3.8,51.9-9.6,105.8-11.5c105.8-5.8,153.8,28.8,153.8,113.5c1.9,69.2,78.9,138.5,169.2,150c75,9.6,80.8,5.8,71.2-26.9c-17.3-50,7.7-155.8,32.7-140.4c9.6,7.7,15.4,40.4,11.5,73.1l-7.7,61.5l82.7-55.8c90.4-59.6,100-78.8,51.9-105.8c-21.2-11.5-25-23.1-11.6-30.8c28.8-17.3,105.8,61.5,88.5,88.5c-9.6,15.4-3.8,17.3,17.3,9.6c55.8-21.2,34.6,3.8-44.2,53.8c-50,30.8-76.9,63.5-76.9,88.5c0,36.5,5.8,34.6,73.1-23.1c88.5-76.9,138.5-157.7,138.5-219.2c0-34.6,9.6-48.1,36.5-48.1c30.8,0,38.5,15.4,44.2,71.2c7.7,82.7,53.8,113.5,53.8,34.6c0-94.2,32.7-128.9,121.1-123.1c53.9,3.8,78.9-1.9,76.9-17.3c-7.7-32.7,26.9-28.8,40.4,5.8c13.5,38.5,50,36.5,50-3.9c0-17.3-11.5-61.5-23.1-98.1c-23.1-61.5-28.8-63.5-92.3-51.9c-36.5,5.8-117.3,17.3-178.8,23.1c-92.3,9.6-115.4,5.8-136.5-23.1c-23.1-32.7-30.8-32.7-136.5,11.5c-111.5,46.2-159.6,105.8-134.6,167.3c9.6,28.8,21.2,28.8-269.2-9.6c-63.5-9.6-126.9-23.1-140.4-32.7c-13.5-7.7-36.6-5.8-51.9,7.7c-44.2,36.5-140.4-50-155.8-142.3c-7.7-44.2-40.4-105.8-75-144.2c-90.4-103.8-125-217.3-125-409.6c0-92.3,9.6-173.1,19.2-178.8c11.5-7.7,36.5-46.2,57.7-86.5c55.8-111.5,142.3-155.8,271.2-140.4c57.7,5.8,111.5,23.1,119.2,36.5c17.3,30.8,71.2,36.5,71.2,9.6c0-30.8,134.6-67.3,159.6-42.3c46.2,46.2,57.7,19.2,44.2-103.8c-11.5-109.6-7.7-134.6,26.9-182.7c21.2-28.8,38.5-67.3,38.5-84.6c0-17.3,9.6-67.3,23.1-113.5c15.4-61.5,15.4-117.3,1.9-207.7c-19.2-115.4-17.3-126.9,26.9-194.2c26.9-38.5,51.9-107.7,57.7-153.8c5.8-46.2,30.8-142.3,57.7-213.5c42.3-117.3,53.8-130.8,90.4-121.2c76.9,19.2,261.5,107.7,261.5,123.1c0,9.6,26.9,50,57.7,90.4c32.7,40.4,57.7,88.4,57.7,107.7c0,19.2,17.3,46.2,36.6,59.6c21.1,15.4,44.2,61.5,51.9,101.9c7.7,50,38.5,101.9,80.8,144.2c67.3,67.3,67.3,69.2,65.4,230.8c0,188.5,36.6,315.4,113.5,378.9c75,63.5,211.5,280.8,215.4,344.2c3.8,59.6,5.8,59.6-144.2,34.6c-63.5-9.6-73.1-5.8-100,44.2c-15.4,30.8-40.4,67.3-57.7,80.8c-32.7,26.9-107.7,165.4-107.7,198.1c0,11.5-11.5,30.8-26.9,42.3c-26.9,21.2-57.7,146.2-36.5,146.2c17.3,0,61.5-65.4,63.5-92.3c0-13.5,34.6-69.2,75-125c42.3-55.8,82.7-123.1,88.5-151.9c23.1-90.4,51.9-98.1,165.4-44.2c57.7,26.9,115.4,48.1,128.9,48.1c11.5,0,23.1,11.5,23.1,25c0,11.5,26.9,36.5,59.6,51.9c32.7,15.4,73.1,51.9,88.5,78.8c28.8,48.1,28.8,53.8-15.4,111.5c-32.7,42.3-59.6,57.7-90.4,51.9c-34.6-5.8-51.9,9.6-80.8,67.3c-21.2,40.4-48.1,78.8-59.6,86.5c-15.4,7.7-13.5,17.3,3.8,28.8c44.2,26.9,53.9,21.2,94.2-59.6c25-50,51.9-76.9,76.9-76.9c21.1,0,48.1-17.3,61.5-36.5c17.3-28.8,30.8-32.7,57.7-19.2c71.2,38.5,265.4-26.9,265.4-88.5c0-15.4,13.5-28.8,28.8-28.8s34.6-23.1,40.4-51.9c7.7-30.8,42.3-107.7,78.9-175c34.6-67.3,63.5-144.2,63.5-169.2c0-36.5,9.6-46.1,44.2-46.1c36.6,0,50,15.4,67.3,75c13.5,40.4,23.1,88.5,23.1,105.8c0,17.3,38.5,71.2,86.5,121.2C7246.5-16,7285,30.1,7285,37.8c0,13.5,86.5,57.7,115.4,57.7c26.9,0,84.6-119.2,78.8-157.7c-3.8-26.9,9.6-34.6,53.9-34.6c50,0,59.6-7.7,59.6-44.2c0-25,11.5-55.8,23.1-67.3c13.5-13.5,25-67.3,26.9-121.2c1.9-84.6,9.6-103.8,67.3-153.8c73.1-61.5,142.3-107.7,128.8-80.8c-5.8,7.7-23.1,46.1-40.4,84.6c-17.3,36.5-48.1,82.7-71.2,103.9c-36.5,32.7-57.7,163.5-23.1,163.5c7.7,0,40.4-26.9,75-57.7c73.1-69.2,109.6-73.1,148.1-15.4c38.5,51.9,42.3,226.9,7.7,226.9c-30.8,0-75,92.3-51.9,107.7c26.9,15.4,55.8-9.6,78.9-65.4c19.2-48.1,21.2-50,34.6-13.5c9.6,26.9,5.8,40.4-13.5,44.2c-46.1,11.5,11.5,61.5,71.2,61.5c38.5,0,65.4,19.2,103.9,73.1c26.9,40.4,50,82.7,50,94.2c0,11.5,11.5,25,26.9,30.8c44.2,17.3,50,167.3,9.6,240.4c-44.2,76.9-46.2,107.7-7.7,138.5c17.3,13.5,25,40.4,19.2,59.6c-7.7,25-1.9,36.5,15.4,36.5c34.6,0,90.4-61.5,90.4-100c0-17.3,13.5-40.4,30.8-55.8c46.2-38.5,69.2,13.5,55.8,123.1c-11.5,100,9.6,157.7,65.4,176.9c19.2,5.8,63.5,55.8,96.2,109.6c55.8,90.4,61.5,107.7,48.1,205.8c-11.6,100-9.6,105.8,19.2,69.2c15.4-21.2,30.8-65.4,30.8-98.1c0-30.8,13.5-75,28.8-96.2c26.9-34.6,26.9-34.6,28.8,7.7c0,25,7.7,38.5,19.2,32.7c36.5-23.1,19.2,40.4-28.8,105.8c-26.9,36.5-48.1,84.6-48.1,107.7c0,25-7.7,50-19.2,55.8c-9.6,5.8-19.2,3.9-19.2-5.8c0-19.2-144.2-19.2-165.4,0c-7.7,9.6,0,30.8,15.4,48.1c15.4,19.2,34.6,57.7,42.3,84.6c5.8,30.8,28.8,55.8,51.9,61.5c50,13.5,226.9-5.8,238.5-25c5.8-7.7,30.8-9.6,55.8-5.8c34.6,7.7,50,25,53.8,61.5c3.8,34.6,17.3,50,44.2,50c21.2,1.9,50,7.7,63.5,17.3c48.1,28.8,44.2-1.9-15.4-113.5c-65.4-123.1-69.2-150-30.8-180.8c13.4-11.5,30.8-48.1,38.5-78.8c5.8-32.7,19.2-57.7,28.8-57.7c19.2,0,100,121.2,105.8,159.6c1.9,11.5,9.6,34.6,19.2,50c11.5,17.3,5.8,32.7-13.5,42.3c-38.5,21.2-21.2,88.5,28.8,115.4c21.1,11.5,63.5,17.3,92.3,9.6c40.4-7.7,55.8-1.9,63.5,25c3.8,21.2,42.3,44.2,98.1,59.6c94.2,26.9,105.8,38.5,59.6,76.9c-23.1,19.2-25,30.8-7.7,50c28.8,34.6,82.7,34.6,113.5-1.9c40.4-48.1,76.9-34.6,76.9,26.9c0,44.2-11.5,59.6-57.7,76.9c-30.8,9.6-57.7,26.9-57.7,36.5c0,21.2-125,80.8-169.2,80.8c-17.3,0-78.9,17.3-134.6,38.5c-130.8,50-165.4,50-151.9,0c11.6-42.3-34.6-55.8-48.1-15.4c-5.8,15.4-44.2,21.1-109.6,17.3c-84.6-3.8-105.8,1.9-130.8,34.6c-28.8,42.3-90.4,53.9-111.5,21.2c-7.7-11.5-42.3-3.9-88.4,19.2c-42.3,23.1-84.6,34.6-94.2,28.8c-11.5-5.8-19.2-1.9-19.2,7.7c0,11.5-11.5,21.2-26.9,21.2c-15.4,0-30.8,7.7-34.6,17.3c-1.9,9.6-42.3,23.1-86.5,30.8c-69.2,11.5-82.7,7.7-82.7-17.3c0-26.9-28.8-30.8-188.5-30.8c-103.8,0-196.2,5.8-203.9,13.5c-13.4,15.4-251.9,65.4-332.7,71.1c-38.5,1.9-38.5,3.8-11.5,36.5c28.8,30.8,28.8,36.5-11.6,78.8c-34.6,36.5-57.7,44.2-115.4,36.5c-50-7.7-78.8,0-96.2,21.2C7329.2,2530.1,7285,2526.3,7285,2484z M6669.6,2076.3c15.4-9.6,21.1-23.1,13.5-30.8c-7.7-7.7-28.8,0-46.2,17.3C6602.3,2097.4,6621.5,2107,6669.6,2076.3z M5354.2,1839.7c-17.3-23.1-44.2-61.5-61.5-84.6c-34.6-50-23.1-76.9,42.3-101.9c34.6-13.5,46.1-32.7,46.1-78.9c0-48.1-5.8-55.8-25-38.5c-34.6,26.9-51.9,7.7-51.9-57.7c0-59.6-25-80.8-96.2-88.5c-26.9-1.9-73.1-7.7-105.8-11.5c-50-5.8-59.6,0-80.8,61.5c-28.8,82.7-30.8,98.1-9.6,98.1c9.6,0,30.8-30.8,48.1-67.3c17.3-36.5,44.2-67.3,59.6-67.3c44.2,0,107.7,159.6,94.2,240.4c-9.6,55.8,0,80.8,61.5,161.5c40.4,53.9,80.8,92.3,90.4,86.5C5375.4,1885.9,5369.6,1860.9,5354.2,1839.7z M5486.9,1614.7c-5.8-9.6-28.8-19.2-50-19.2c-21.2,0-32.7,9.6-26.9,19.2c5.8,11.5,28.8,19.2,50,19.2C5481.1,1634,5492.7,1626.3,5486.9,1614.7z M8208.1,730.1c0-42.3-13.5-48.1-55.8-21.2c-30.8,19.2-11.5,59.6,28.8,59.6C8196.5,768.6,8208.1,751.3,8208.1,730.1z"/><path d="M1958,2460.9c0-30.8-13.5-38.5-71.2-38.5c-78.8-1.9-163.5-46.2-117.3-63.5c13.5-3.9,17.3-15.4,9.6-25c-7.7-7.7-40.4,0-69.2,17.3c-30.8,17.3-84.6,32.7-121.2,32.7c-55.8,0-67.3-11.5-98.1-75c-32.7-71.2-28.8-136.5,9.6-136.5c9.6,0,42.3,13.5,73.1,28.8c50,26.9,55.8,26.9,46.2,0c-7.7-19.2,0-28.8,28.8-28.8c48.1,0,53.9-32.7,7.7-44.2c-23.1-5.8-15.4-13.5,28.8-23.1c32.7-7.7,61.5-21.2,61.5-30.8s38.5-13.5,86.5-9.6c48.1,3.8,86.5-1.9,86.5-9.6c0-9.6-7.7-17.3-17.3-17.3c-9.6,0-13.5-17.3-7.7-38.5c9.6-38.5-13.5-51.9-40.4-25c-19.2,19.2-225,82.7-269.2,82.7c-21.2,0-53.9,15.4-75,34.6c-28.8,23.1-40.4,26.9-46.2,9.6c-13.5-34.6-82.7-30.8-82.7,3.9c0,26.9-5.8,26.9-42.3,1.9c-53.8-34.6-238.5-28.8-496.2,17.3c-213.5,36.5-188.5,36.5-346.2,3.9c-155.8-30.8-167.3-75-30.8-119.2c36.5-9.6,34.6-11.5-5.8-42.3c-28.8-19.2-50-23.1-61.5-11.5c-15.4,15.4-173.1-17.3-205.8-44.2c-3.8-1.9,17.3-26.9,44.2-53.8c36.5-36.5,69.2-50,128.8-50c65.4,0,75-3.8,55.8-26.9c-13.5-15.4-67.3-38.5-121.2-50c-113.5-23.1-150-48.1-150-98.1c0-71.1,119.2-230.8,142.3-192.3c15.4,23.1,88.5,30.8,88.5,9.6c0-44.2-94.2-150-175-194.2c-117.3-67.3-142.3-111.5-50-92.3c32.7,7.7,69.2,21.2,80.8,30.8c9.6,9.6,26.9,17.3,40.4,17.3c11.5,0,63.5,40.4,115.4,92.3c123.1,117.3,182.7,163.5,194.2,150c5.8-5.8-3.9-32.7-21.2-59.6c-38.5-57.7-23.1-59.6,94.2-7.7c86.5,38.5,90.4,42.3,78.9,103.8c-11.5,59.6-7.7,65.4,48.1,76.9c46.2,11.5,69.2,3.8,109.6-32.7c28.8-25,75-57.7,105.8-73.1s59.6-50,69.2-84.6c9.6-32.7,19.2-44.2,19.2-25c1.9,17.3,9.6,32.7,19.2,32.7c32.7,0,46.2-280.8,28.8-578.8l-11.5-184.6l59.6-69.2c34.6-36.5,75-109.6,92.3-161.5c17.3-50,40.4-105.8,53.8-121.2s28.8-44.2,34.6-61.5c7.7-19.2,26.9-34.6,42.3-34.6c25,0,28.8,11.5,19.2,63.5l-13.5,61.5l67.3-76.9c38.5-42.3,69.2-92.3,71.2-111.5c1.9-92.3,51.9-157.7,146.2-192.3c51.9-17.3,117.3-32.7,146.2-32.7c32.7,0,59.6-13.5,73.1-36.5c9.6-21.1,44.2-42.3,76.9-50c30.8-7.7,75-34.6,96.2-61.5c67.3-84.6,157.7-142.3,186.5-119.2c19.2,17.3,28.8,9.6,44.2-30.8c21.2-55.8,9.6-130.8-32.7-194.2c-40.4-63.5-13.5-232.7,38.5-250c36.5-11.5,36.5-15.4,7.7-36.5c-48.1-34.6-40.4-100,15.4-136.5c26.9-17.3,48.1-44.2,48.1-59.6c0-42.3,75-140.4,105.8-140.4c51.9,0,82.7-101.9,84.6-276.9c0-94.2,5.8-175,9.6-180.8c5.8-3.8-1.9-30.8-15.4-59.6c-38.5-75-51.9-251.9-19.2-251.9c36.5,0,34.6-71.2-3.9-84.6c-15.4-5.8-23.1-21.2-17.3-30.8c7.7-11.6,15.4-69.2,21.2-130.8c11.5-184.6,19.2-223.1,53.8-292.3c44.2-86.5,103.8-132.7,171.2-134.6c65.4,0,65.4,13.5,1.9,78.8c-48.1,50-50,57.7-26.9,113.5c13.5,32.7,38.5,67.3,55.8,76.9c25,13.5,26.9,23.1,5.8,57.7c-17.3,28.8-19.2,50-1.9,78.8c11.5,23.1,17.3,65.4,13.5,94.2c-5.8,36.5,1.9,59.6,26.9,75c19.2,11.5,34.6,32.7,34.6,48.1c0,13.5,23.1,30.8,53.8,36.5c92.3,21.2,107.7,40.4,84.6,107.7c-21.2,57.7-19.2,59.6,30.8,59.6c42.3,0,69.2,21.1,125,96.2c38.5,51.9,71.2,115.4,71.2,138.5c1.9,57.7,61.5,126.9,130.8,151.9c61.5,21.2,80.8,71.2,90.4,221.2c3.8,51.9,21.2,94.2,53.8,130.8c96.2,103.8,130.8,328.9,50,328.9c-15.4,0-51.9,13.5-84.6,30.8c-30.8,17.3-98.1,36.5-148.1,44.2c-50,7.7-96.2,21.2-101.9,32.7c-7.7,9.6-28.8,17.3-50,17.3c-26.9,0-36.5,13.5-36.5,53.8c0,76.9-50,138.5-113.5,138.5c-51.9,0-117.3,50-117.3,90.4c0,25-146.2,92.3-192.3,88.5c-19.2-1.9-57.7,17.3-82.7,40.4c-34.6,30.8-55.8,38.5-69.2,25c-13.5-13.5-26.9-13.5-46.2,1.9c-21.2,17.3-44.2,7.7-107.7-46.2c-76.9-67.3-82.7-69.2-107.7-34.6s-26.9,34.6-61.5,1.9c-21.1-17.3-42.3-32.7-50-32.7c-5.8,0-13.5,50-17.3,111.5c-5.8,109.6-5.8,109.6-78.8,126.9c-55.8,13.5-69.2,25-59.6,48.1c7.7,17.3,17.3,53.9,21.2,80.8c7.7,44.2,3.8,50-51.9,51.9c-46.2,0-63.5-9.6-76.9-46.2c-19.2-50-73.1-61.5-111.5-23.1c-13.5,13.4-23.1,78.8-23.1,161.5c0,136.5,0,138.5,59.6,163.5c48.1,19.2,73.1,19.2,119.2,1.9c40.4-15.4,67.3-15.4,78.8-3.8c11.5,11.5,51.9,19.2,92.3,19.2c67.3,0,75-5.8,86.5-57.7c5.8-32.7,25-67.3,42.3-75c25-15.4,30.8-7.7,28.8,42.3c-1.9,34.6-9.6,78.8-19.2,98.1c-19.2,50,25,125,98.1,165.4c32.7,19.2,55.8,48.1,55.8,65.4c-1.9,17.3,7.7,30.8,21.2,30.8c11.5,0,34.6,34.6,48.1,75c17.3,53.9,40.4,82.7,80.8,100c40.4,15.4,51.9,30.8,44.2,57.7c-13.5,38.5,42.3,82.7,132.7,105.8c42.3,9.6,51.9,7.7,40.4-9.6c-7.7-15.4,11.5-11.5,50,9.6c61.5,30.8,63.5,32.7,21.2,48.1c-51.9,19.2-55.8,75-5.8,88.5c25,5.8,32.7,21.1,25,48.1c-5.8,26.9-1.9,36.5,11.5,26.9c11.5-7.7,48.1,0,78.8,17.3c32.7,15.4,61.5,28.8,69.2,28.8c25,0,5.8-46.2-42.3-103.8l-50-59.6l50-5.8c28.8-3.8,51.9-13.5,51.9-21.2c0-9.6,21.2-21.2,48.1-25c42.3-9.6,48.1-5.8,36.5,30.8c-7.7,21.2-25,57.7-38.5,78.8c-15.4,21.2-26.9,78.9-26.9,130.8c0,73.1-5.8,92.3-26.9,84.6c-30.8-13.5-90.4,65.4-98.1,128.8c-11.5,94.2-86.5,194.2-86.5,115.4c0-21.2-15.4-26.9-51.9-23.1c-44.2,3.8-55.8,15.4-59.6,67.3c-5.8,51.9-17.3,65.4-92.3,94.2c-51.9,19.2-94.2,25-103.9,15.4c-23.1-23.1-55.8-238.5-42.3-273.1c7.7-21.2-1.9-25-36.5-13.5c-26.9,5.8-36.5,5.8-23.1-3.9c17.3-13.5,17.3-32.7-1.9-88.5c-34.6-101.9-44.2-103.9-69.2-15.4c-17.3,63.5-28.8,78.8-67.3,78.8c-100,0-244.2,136.5-209.6,198.1c28.8,50,182.7,205.8,203.9,205.8c9.6,0,15.4,11.5,9.6,26.9c-7.7,19.2,15.4,34.6,82.7,50c86.5,21.2,92.3,26.9,100,88.5c5.8,46.2-1.9,73.1-21.2,86.5c-21.2,13.5,0,15.4,69.2,9.6c109.6-9.6,188.5-65.4,171.2-123.1c-5.8-17.3-42.3-50-82.7-71.2c-88.5-48.1-90.4-75-5.8-82.7c36.5-3.9,98.1-32.7,136.5-63.5c38.5-30.8,80.8-55.8,90.4-55.8c30.8,0,48.1,73.1,32.7,148.1c-11.5,67.3-11.5,67.3,30.8,36.5c40.4-26.9,44.2-26.9,67.3,19.2c34.6,63.5,17.3,98.1-61.5,123.1c-51.9,17.3-63.5,28.8-46.2,48.1c32.7,38.5-17.3,105.8-76.9,105.8c-28.8,0-59.6,17.3-73.1,38.5c-19.2,32.7-36.5,38.5-88.5,28.8c-48.1-9.6-67.3-5.8-75,17.3c-9.6,23.1-23.1,26.9-61.5,11.5c-38.5-13.5-48.1-11.5-48.1,9.6c0,46.2-51.9,32.7-94.2-21.2c-61.5-78.8-48.1-169.2,25-171.2c36.5,0,30.8-42.3-9.6-78.8c-40.4-36.5-42.3-36.5-28.8,1.9c7.7,26.9-7.7,59.6-57.7,111.5c-98.1,103.9-150,86.5-115.4-34.6c7.7-21.2,3.8-51.9-7.7-67.3c-17.3-25-23.1-25-40.4,5.8c-19.2,32.7-23.1,32.7-67.3,3.9c-40.4-25-55.8-26.9-98.1-5.8c-75,36.5-80.8,75-7.7,61.5c50-9.6,59.6-5.8,59.6,23.1c0,23.1,30.8,55.8,73.1,82.7c59.6,36.5,73.1,53.9,65.4,90.4c-7.7,40.4-19.2,46.2-98.1,46.2c-53.9,0-111.5-15.4-150-38.5c-34.6-21.2-63.5-28.8-63.5-19.2c0,11.5-17.3,19.2-38.5,19.2c-21.2,0-38.5,13.5-38.5,28.8c0,19.2,19.2,28.8,55.8,28.8c30.8,0,90.4,11.5,132.7,26.9c46.2,17.3,109.6,23.1,157.7,17.3c78.9-11.5,80.8-9.6,67.3,34.6c-21.2,65.4-21.2,65.4-96.2,30.8c-88.5-42.3-105.8-40.4-105.8,5.8c0,21.2-13.5,38.5-28.8,38.5S1958,2482,1958,2460.9z M2063.8,2268.6c-9.6-28.8-3.8-38.5,21.2-38.5c25,0,26.9-5.8,7.7-28.8c-28.8-34.6-76.9-38.5-76.9-3.8c0,48.1,25,109.6,42.3,109.6C2067.7,2307,2069.6,2289.7,2063.8,2268.6z M1411.9,310.9c-17.3-15.4-50,19.2-50,50c1.9,28.8,3.8,28.8,28.8-3.8C1406.1,335.9,1415.7,316.6,1411.9,310.9z"/><path d="M6292.7,2420.5c-117.3-36.5-146.2-61.5-213.5-188.5c-34.6-61.5-32.7-65.4,30.8-103.8c71.1-40.4,90.4-15.4,50,61.5c-38.5,76.9-36.5,86.5,25,111.5c28.8,11.5,73.1,34.6,100,51.9c26.9,15.4,71.2,32.7,98.1,38.5c51.9,11.5,94.2,71.2,50,67.3C6419.6,2459,6356.1,2441.7,6292.7,2420.5z"/><path d="M8252.3,2447.4c-65.4-11.5-53.8-57.7,15.4-71.1c75-13.5,125,17.3,92.3,57.7C8336.9,2460.9,8329.2,2462.8,8252.3,2447.4z"/><path d="M4096.5,1932c-21.2-25-19.2-28.8,7.7-28.8c23.1,0,26.9-5.8,11.5-25c-36.5-44.2,40.4-90.4,132.7-82.7c98.1,9.6,105.8,19.2,82.7,84.6c-15.4,44.2-28.8,51.9-88.5,51.9c-38.5,0-76.9,5.8-84.6,15.4C4138.8,1966.6,4125.4,1962.8,4096.5,1932z"/><path d="M2396.5,1807c-36.5-42.3-13.5-69.2,38.5-46.2c17.3,7.7,50,11.5,71.2,7.7c38.5-3.9,38.5-3.9,1.9,36.5C2461.9,1855.1,2436.9,1855.1,2396.5,1807z"/><path d="M4600.4,1580.1c-11.5-7.7-25-46.2-30.8-86.5c-5.8-55.8,0-78.8,26.9-92.3c36.5-19.2,26.9-75-15.4-75c-32.7,0-32.7-1.9-7.7-65.4c15.4-40.4,13.5-50-13.5-50c-17.3,0-26.9-5.8-21.2-11.5c7.7-5.8,51.9-3.8,100,1.9c67.3,11.5,88.5,21.2,88.5,50c0,19.2,7.7,38.5,17.3,46.2c9.6,5.8-11.5,65.4-46.2,132.7c-46.2,90.4-57.7,128.8-42.3,144.2C4681.1,1599.3,4635,1605.1,4600.4,1580.1z"/><path d="M4454.2,1382c-51.9-28.8-44.2-94.2,11.5-94.2c36.5,0,48.1,11.5,53.8,57.7C4529.2,1407,4511.9,1416.7,4454.2,1382z"/><path d="M8727.3,993.6c0-13.5-5.8-42.3-11.5-63.5c-9.6-36.5-3.9-42.3,50-36.5c53.8,3.8,94.2,32.7,96.2,69.2c0,5.8-30.8,19.2-67.3,30.8C8744.6,1009,8727.3,1009,8727.3,993.6z"/><path d="M8746.5,780.1c0-75-7.7-88.5-73.1-134.6c-40.4-26.9-86.5-50-103.9-50c-40.4,0-69.2-42.3-38.5-53.8c32.7-9.6,28.8-42.3-7.7-42.3c-15.4,0-23.1-9.6-17.3-21.2c9.6-13.5,25-7.7,50,13.5c19.2,17.3,51.9,32.7,69.2,34.6c19.2,1.9,67.3,19.2,107.7,40.4c76.9,38.5,80.8,51.9,59.6,209.6C8777.3,887.8,8746.5,891.6,8746.5,780.1z"/><path d="M5415.7,601.3c13.5-5.8,30.8-3.8,36.5,1.9c7.7,5.8-3.8,11.5-25,9.6C5406.1,612.8,5400.4,607,5415.7,601.3z"/><path d="M8250.4,207c-15.4-15.4-15.4-32.7-1.9-57.7c25-46.2,55.8-26.9,55.8,34.6C8304.2,234,8286.9,243.6,8250.4,207z"/><path d="M2361.9,191.6c0-9.6,9.6-19.2,19.2-19.2c11.5,0,19.2,9.6,19.2,19.2c0,11.5-7.7,19.2-19.2,19.2C2371.5,210.9,2361.9,203.2,2361.9,191.6z"/><path d="M2448.4,191.6c5.8-9.6,21.2-19.2,30.8-19.2c11.5,0,13.5,9.6,7.7,19.2c-5.8,11.5-21.2,19.2-30.8,19.2C2444.6,210.9,2442.7,203.2,2448.4,191.6z"/><path d="M2515.7,149.3c0-32.7,69.2-67.3,90.4-46.2c7.7,5.8,0,11.5-13.5,11.5c-13.5,0-36.5,15.4-50,34.6C2519.6,180.1,2517.7,180.1,2515.7,149.3z"/><path d="M2188.8,116.6c0-11.5,28.8-13.5,63.5-7.7c46.2,7.7,71.2,0,98.1-30.8c21.2-23.1,59.6-40.4,90.4-40.4c38.5,0,51.9-7.7,44.2-26.9c-11.5-30.8,46.1-50,115.4-36.5c40.4,7.7,46.2,15.4,28.8,36.5c-11.5,15.4-44.2,26.9-69.2,26.9c-26.9,0-73.1,21.2-105.8,48.1c-46.2,38.5-78.8,48.1-161.5,48.1C2235,134,2188.8,126.3,2188.8,116.6z"/><path d="M8285-18c0-19.2,13.5-46.1,28.8-59.6c25-21.2,34.6-19.2,57.7,11.5c44.2,57.7,34.6,84.6-28.8,84.6C8298.4,18.6,8285,9,8285-18z"/><path d="M2342.7-19.9c0-9.6,17.3-19.2,40.4-19.2c21.2,0,32.7,9.6,26.9,19.2c-5.8,11.5-25,19.2-40.4,19.2C2354.2-0.7,2342.7-8.4,2342.7-19.9z"/><path d="M2688.8-31.4c0-17.3,9.6-26.9,23.1-23.1c34.6,11.5,40.4,53.8,7.7,53.8C2702.3-0.7,2688.8-14.1,2688.8-31.4z"/><path d="M4006.1-77.6c-5.8-9.6-1.9-19.2,7.7-19.2c11.5,0,21.2,9.6,21.2,19.2c0,11.5-3.8,19.2-7.7,19.2C4021.5-58.3,4011.9-66,4006.1-77.6z"/><path d="M8458.1-171.8c0-19.2-17.3-40.4-38.5-46.1c-21.2-5.8-38.5-19.2-38.5-28.8c0-11.6,19.2-15.4,42.3-7.7c32.7,7.7,38.5,3.8,28.8-21.2c-13.5-34.6,15.4-46.2,34.6-13.5c5.8,11.5,28.8,19.2,50,19.2c42.3,0,50,34.6,7.7,50c-15.4,5.8-32.7,26.9-38.5,48.1C8490.8-125.7,8458.1-123.7,8458.1-171.8z"/><path d="M7125.4-339.1c-7.7-7.7-13.5-32.7-13.5-53.8c0-36.5,1.9-36.5,32.7-5.8c23.1,21.2,26.9,38.5,13.5,51.9C7146.5-335.3,7133-333.3,7125.4-339.1z"/><path d="M8142.7-458.3c-7.7-19.2-46.1-53.9-86.5-76.9c-40.4-23.1-78.8-55.8-86.5-71.2c-23.1-63.5,90.4-182.7,176.9-182.7c32.7,0,80.8,115.4,80.8,192.3c0,32.7,11.5,75,25,96.2c19.2,32.7,17.3,42.3-5.8,57.7C8200.4-414.1,8154.2-419.9,8142.7-458.3z"/><path d="M7554.2-473.8c0-13.4,34.6-59.6,76.9-101.9s76.9-92.3,76.9-115.4c0-32.7,88.4-117.3,125-117.3c7.7,0,9.6,30.8,3.8,67.3C7817.7-619.9,7554.2-371.8,7554.2-473.8z"/><path d="M8285-633.4c-23.1-46.1-25-117.3-1.9-151.9c11.5-19.2,19.2-15.4,26.9,17.3c9.6,36.5,15.4,38.5,42.3,17.3c38.5-32.7,55.8-13.5,30.8,34.6c-26.9,51.9-26.9,61.5,7.7,61.5c44.2,0,34.6,32.7-13.5,46.1C8311.9-591,8308.1-593,8285-633.4z"/><path d="M8573.4-614.1c0-23.1,40.4-36.5,82.7-25c53.8,13.5,38.5,42.3-25,42.3C8600.4-596.8,8573.4-604.5,8573.4-614.1z"/><path d="M8735-675.7c-5.8-11.5-32.7-15.4-55.8-9.6c-25,5.8-51.9,3.8-57.7-7.7c-5.8-9.6,3.8-19.2,23.1-19.2c51.9-1.9,188.5-101.9,194.2-146.2c5.8-42.3,161.5-103.8,173.1-67.3c9.6,30.8,73.1,25,100-7.7c13.5-15.4,30.8-28.8,38.5-28.8c30.8,0-5.8,75-59.6,123.1c-30.8,28.8-55.8,59.6-55.8,69.2c0,11.5-9.6,19.2-21.1,19.2c-9.6,0-51.9,21.1-90.4,48.1C8850.4-652.6,8758-639.1,8735-675.7z"/><path d="M7861.9-850.7c0-30.8,276.9-109.6,300-86.5c21.2,21.1-38.5,63.5-107.7,76.9c-36.5,5.8-96.2,17.3-128.8,25C7877.3-825.7,7861.9-829.5,7861.9-850.7z"/><path d="M8919.6-1073.7c0-40.4-11.5-88.5-25-107.7c-23.1-32.7-26.9-32.7-86.5,1.9c-67.3,38.5-78.9,71.1-28.8,90.4c57.7,23.1-11.6,50-123.1,50c-75,0-101.9-7.7-101.9-26.9c0-15.4-25-32.7-55.8-40.4c-63.5-13.5-90.4-38.5-101.9-96.2c-3.8-23.1-23.1-38.5-44.2-40.4c-96.2-5.8-105.8-9.6-105.8-46.1c0-25-9.6-34.6-26.9-26.9c-19.2,7.7-38.5-11.5-55.8-55.8c-19.2-44.2-46.2-71.2-78.9-78.9c-50-11.5-50-15.4-36.5-123.1c5.8-59.6,11.5-150,11.5-200c0-73.1,7.7-90.4,38.5-100c21.2-5.8,63.5,3.9,92.3,19.2c28.8,13.5,65.4,26.9,80.8,26.9s53.8,13.5,82.7,28.8c30.8,15.4,92.3,28.8,136.6,28.8c71.2,0,84.6-7.7,111.5-57.7c21.2-42.3,44.2-57.7,78.8-57.7c44.2,0,50-7.7,42.3-48.1c-7.7-38.5,0-50,48.1-67.3c84.6-28.8,190.4-23.1,234.6,15.4c50,42.3,148.1,186.5,180.8,267.3c34.6,86.5,3.8,275-46.2,275c-30.8,0-48.1,42.3-48.1,113.4c0,28.8-7.7,59.6-17.3,71.2c-30.8,28.8-117.3,200-117.3,230.8c0,13.5-7.7,26.9-19.2,26.9C8929.2-1000.7,8919.6-1033.4,8919.6-1073.7z"/><path d="M6131.1-1089.1c-11.5-32.7-46.2-78.8-76.9-101.9c-44.2-30.8-57.7-57.7-57.7-103.8c0-34.6-3.8-96.2-9.6-138.5c-13.5-96.2,3.8-125,69.2-111.5c55.8,9.6,63.5,28.8,121.2,290.4c23.1,103.9,23.1,130.8,0,173.1l-25,51.9L6131.1-1089.1z"/><path d="M9765.8-1875.7c0-32.7-9.6-69.2-23.1-82.7c-15.4-15.4-15.4-28.8,1.9-50c13.4-15.4,17.3-38.5,9.6-51.9c-7.7-13.4-3.9-19.2,13.4-13.4c15.4,3.8,38.5,34.6,53.9,65.4c15.4,30.8,38.5,63.5,53.8,71.2c38.5,23.1,30.8,51.9-15.4,51.9c-23.1,0-53.9,15.4-67.3,34.6C9769.6-1821.8,9767.7-1823.7,9765.8-1875.7z"/><path d="M9544.6-2177.6c-109.6-113.5-111.5-117.3-69.2-134.6c50-17.3,98.1,9.6,98.1,53.8c0,15.4,9.6,26.9,21.1,26.9c9.6,0,46.2,25,78.9,55.8c51.9,48.1,57.7,61.6,36.5,86.5c-15.4,17.3-30.8,30.8-38.5,30.8C9665.8-2058.4,9608.1-2112.2,9544.6-2177.6z"/><path d="M8833.1-2135.3c25-50,36.6-55.8,67.3-38.5c21.1,11.5,38.5,38.5,38.5,57.7c0,30.8-13.5,38.5-67.3,38.5h-69.2L8833.1-2135.3z"/></g></g>
</svg>